<svg xmlns="http://www.w3.org/2000/svg" viewBox="0 0 284.16 321.36"><defs><style>.cls-1{fill:#0e2d52;}.cls-2{fill:#fff;}.cls-3{fill:none;}.cls-4{fill:#ffc400;}</style></defs><title>Asset 1</title><g id="Layer_2" data-name="Layer 2"><g id="Layer_1-2" data-name="Layer 1"><path class="cls-1" d="M267.25,193,265.8,211.5q6.92-1.25,13.53-2.6l4.8-11.9Q275.75,194.89,267.25,193Z"/><path class="cls-1" d="M.07,197l4.81,12.08c4.27.88,8.67,1.72,13.16,2.54L16.95,193Q8.44,194.88.07,197Z"/><path class="cls-1" d="M27.18,48.06V158.33c0,79.5,93.16,127.37,114.91,137.45C163.82,285.71,257,237.85,257,158.33V48.06c-15.7-7.14-59.64-24.54-114.89-24.54S42.9,40.91,27.18,48.06Z"/><path class="cls-2" d="M142.09,11.64c-73.33,0-126.79,29-126.79,29V158.33c0,98.82,126.79,150.46,126.79,150.46s126.78-51.64,126.78-150.46V40.61S215.41,11.64,142.09,11.64ZM257,140.71v17.62c0,79.51-93.16,127.38-114.89,137.45C120.34,285.7,27.18,237.84,27.18,158.33V48.06C42.9,40.91,86.84,23.51,142.09,23.51S241.27,40.92,257,48.06Z"/><path class="cls-3" d="M15.29,40.61V158.33c0,98.82,126.79,150.46,126.79,150.46s126.78-51.64,126.78-150.46V40.61s-53.46-29-126.78-29S15.29,40.61,15.29,40.61ZM257,140.71v17.62c0,79.51-93.16,127.38-114.89,137.45C120.34,285.7,27.18,237.84,27.18,158.33V48.06C42.9,40.91,86.84,23.51,142.09,23.51S241.27,40.92,257,48.06Z"/><path class="cls-1" d="M274.41,30.38C272.12,29.14,217.49,0,142.09,0S12,29.14,9.75,30.38l-6.09,3.3V158.33c0,105.43,128.57,159,134,161.24l4.39,1.79,4.39-1.79c5.47-2.24,134-55.81,134-161.24V33.68Zm-5.54,128c0,98.82-126.78,150.46-126.78,150.46S15.29,257.15,15.29,158.33V40.61s53.47-29,126.79-29,126.78,29,126.78,29Z"/><path class="cls-2" d="M100,188.08V199.2c16.36,0,26.81,2.65,26.81,22.58v25.66H157.4V221.78c0-20,11.69-22.58,26.78-22.58V188.08Z"/><path class="cls-1" d="M10.91,209.84a591.51,591.51,0,0,0,131.2,14.54,591.6,591.6,0,0,0,131.14-14.53l-3.77,49.39a637.48,637.48,0,0,1-127.37,12.71A637.33,637.33,0,0,1,14.67,259.21l-3.77-49.38m273.21-12.79a578.84,578.84,0,0,1-142,17.43A578.86,578.86,0,0,1,.1,197.05l-.1,0,5.36,70.29a644.52,644.52,0,0,0,136.75,14.47,644.71,644.71,0,0,0,136.68-14.46l5.37-70.32Z"/><path class="cls-2" d="M10.91,209.73a591.49,591.49,0,0,0,131.2,14.54,591.57,591.57,0,0,0,131.14-14.53l-3.77,49.38a636.69,636.69,0,0,1-127.37,12.72A636.49,636.49,0,0,1,14.68,259.1l-3.77-49.38"/><path class="cls-1" d="M67.55,257.87V237.69l-5.12,4L59,237l9-6.65h6v27.5Z"/><path class="cls-1" d="M119.44,262.8c-5.43,0-10.33-2.76-10.33-8.54a6.87,6.87,0,0,1,4.94-6.57v-.07a6.14,6.14,0,0,1-4.19-5.94c0-5.08,4.5-7.84,9.58-7.84s9.59,2.64,9.59,7.72a6.07,6.07,0,0,1-4.19,6v.11a6.76,6.76,0,0,1,4.93,6.53C129.77,260,124.88,262.8,119.44,262.8Zm0-12.54a3.66,3.66,0,0,0-3.84,3.73,3.83,3.83,0,0,0,7.65,0A3.68,3.68,0,0,0,119.44,250.26Zm0-11.37a3.08,3.08,0,0,0-3.25,3.14,3.16,3.16,0,0,0,3.25,3.27,3.27,3.27,0,0,0,3.3-3.27A3.19,3.19,0,0,0,119.44,238.89Z"/><path class="cls-1" d="M169.13,262.06h-7.57l11.15-21.89h-13v-5.6h20v5.19Z"/><path class="cls-1" d="M217,256.55V236.36l-5.13,4-3.38-4.62,9-6.64h6v27.49Z"/><path class="cls-4" d="M167.73,82.65s11,20.27-5.8,38.79c-5-13.77-32.13-45-25.29-69,1.12-3.89,4.14-11.17,4.14-11.17s-38.71,28-30.53,58.21c6.62,24.46,35.77,54,25.68,69.57-6.63,10.23,18.54-10.92,21.39-14.06,8.13-7.5,22.72-22.8,23.74-37C182.45,98.3,167.73,82.65,167.73,82.65Z"/></g></g></svg>